<?xml version="1.0" standalone="no"?><!DOCTYPE svg PUBLIC "-//W3C//DTD SVG 1.1//EN" "http://www.w3.org/Graphics/SVG/1.1/DTD/svg11.dtd"><svg t="1594964685446" class="icon" viewBox="0 0 1024 1024" version="1.1" xmlns="http://www.w3.org/2000/svg" p-id="4479" xmlns:xlink="http://www.w3.org/1999/xlink" width="16" height="16"><defs><style type="text/css"></style></defs><path d="M502.07 153.97c19.32-6.26 39.47-11.1 59.91-10.51 16.38 0 33.66 4.25 46.11 15.39 14.5 12.69 21.12 33.35 17.19 52.14-4.76 26.91-21.66 49.25-37.58 70.65-78.01 103.82-176.71 191.22-246.06 301.67 82.31-74.91 162.86-151.93 248.37-223.28 23.96-19.91 49.9-41.46 82.09-44.81 11.43-1.45 23.51 1.25 33.29 7.37 16.34 9.95 24.74 30.77 20.98 49.36-3.19 17.49-13.88 32.24-23.75 46.58-32.32 48.6-66.27 96.09-101.04 142.96-3.28 4.71-7.18 9.01-9.93 14.08 17.67-13.5 34.4-28.26 51.69-42.26 8.25-7.48 18.25-14.02 29.69-14.65 9.84-0.96 19.65 2.88 27.14 9.13 12.82 11.04 17.16 31.25 8.86 46.22-27.14 44.26-51.53 90.16-75.43 136.21 26.99-12.26 52.55-27.45 78.1-42.45 8.73-4.89 19.54-5.9 29-2.57 15.41 5.09 26.97 20.46 26.89 36.79 0.25 6.31-2.01 12.3-2.98 18.46-2.74 15.82-2.8 32.43 2.16 47.84 2.85 9.46 9.97 17.45 10.3 27.69 2.19 24.81-24.47 45.3-48.03 40.03-10.51-2.07-19.03-9.88-23.84-19.21-8.38-15.02-13.59-31.66-16.32-48.6-40.36 20.94-82.98 38.56-127.95 46.48-16.57 2.9-34.53-4.92-43.4-19.25-5.09-8.09-6.44-18.37-3.61-27.5 2.06-6.94 6.63-12.68 10.15-18.89 6.8-11.58 13.95-22.99 20.05-34.97-13.9 11.45-27.54 23.2-41.51 34.56-14.2 11.79-31.58 22.27-50.69 21.28-22.11-1.64-40.37-22.11-41.82-43.83-1.06-20.77 9.43-39.8 20.23-56.78 43.15-63.79 90.44-124.67 135.01-187.43-6.13 4.63-11.51 10.15-17.34 15.14-78.69 71.26-155.57 144.5-234.48 215.53-16.25 14.41-30.65 30.88-47.97 44.07-7.74 5.69-15.94 11.3-25.45 13.5-16.43 4.05-35.16-0.9-46.5-13.71-9.9-10.55-13.03-26.08-10.12-40.02 4.36-21.5 17.2-39.73 26.9-59.02 39.41-77.38 87.16-150.51 142.6-217.36 56.13-68.99 118.93-132.33 173.04-202.99 3.04-4.23 6.45-8.22 9.03-12.76-6.89 1.8-13.76 3.76-20.36 6.44-89.18 42.64-174.97 92.39-256.17 148.77-20.95 13.16-52.08-2-55.83-26.18-2.79-14.59 4.38-29.78 16-38.57 63.99-45.16 130.97-86.01 199.98-123.01 26.92-14.4 54.57-27.61 83.4-37.73z" p-id="4480"></path></svg>