<?xml version="1.0" standalone="no"?><!DOCTYPE svg PUBLIC "-//W3C//DTD SVG 1.1//EN" "http://www.w3.org/Graphics/SVG/1.1/DTD/svg11.dtd"><svg t="1594886663734" class="icon" viewBox="0 0 1024 1024" version="1.1" xmlns="http://www.w3.org/2000/svg" p-id="1151" xmlns:xlink="http://www.w3.org/1999/xlink" width="200" height="200"><defs><style type="text/css"></style></defs><path d="M789.333333 361.813333v-128h-128v42.666667h-85.333333v-42.666667h-128v42.666667h-85.333333v-42.666667h-128v128h42.666666v85.333334h-42.666666v128h42.666666v85.333333h-42.666666v128h128v-42.666667h85.333333v42.666667h128v-42.666667h85.333333v42.666667h128v-128h-42.666666v-85.333333h42.666666v-128h-42.666666v-85.333334z m-85.333333 85.333334h-42.666667v128h42.666667v85.333333h-42.666667v42.666667h-85.333333v-42.666667h-128v42.666667h-85.333333v-42.666667h-42.666667v-85.333333h42.666667v-128h-42.666667v-85.333334h42.666667v-42.666666h85.333333v42.666666h128v-42.666666h85.333333v42.666666h42.666667z" p-id="1152"></path></svg>